<mxfile host="app.diagrams.net" modified="2021-01-04T06:08:42.508Z" agent="5.0 (Windows NT 10.0; Win64; x64) AppleWebKit/537.36 (KHTML, like Gecko) Chrome/87.0.4280.88 Safari/537.36" etag="rnKqNIPt3yj5RrGGxmhe" version="14.1.8" type="github">
  <diagram id="BtsXeyVJJ4-kWYxq3Xoa" name="Page-1">
    <mxGraphModel dx="554" dy="254" grid="1" gridSize="10" guides="1" tooltips="1" connect="1" arrows="1" fold="1" page="1" pageScale="1" pageWidth="827" pageHeight="1169" math="0" shadow="0">
      <root>
        <mxCell id="0" />
        <mxCell id="1" parent="0" />
        <mxCell id="oRWARCPo0QpvzxCij0XQ-1" value="Account" style="swimlane;html=1;startSize=20;horizontal=1;containerType=tree;newEdgeStyle={&quot;edgeStyle&quot;:&quot;elbowEdgeStyle&quot;,&quot;startArrow&quot;:&quot;none&quot;,&quot;endArrow&quot;:&quot;none&quot;};" vertex="1" parent="1">
          <mxGeometry x="310" y="130" width="440" height="260" as="geometry" />
        </mxCell>
        <UserObject label="Domain" treeRoot="1" id="oRWARCPo0QpvzxCij0XQ-4">
          <mxCell style="whiteSpace=wrap;html=1;align=center;treeFolding=1;treeMoving=1;newEdgeStyle={&quot;edgeStyle&quot;:&quot;elbowEdgeStyle&quot;,&quot;startArrow&quot;:&quot;none&quot;,&quot;endArrow&quot;:&quot;none&quot;};" vertex="1" parent="oRWARCPo0QpvzxCij0XQ-1">
            <mxGeometry x="65" y="190" width="290" height="50" as="geometry" />
          </mxCell>
        </UserObject>
        <mxCell id="oRWARCPo0QpvzxCij0XQ-9" style="edgeStyle=orthogonalEdgeStyle;rounded=0;orthogonalLoop=1;jettySize=auto;html=1;exitX=0.5;exitY=1;exitDx=0;exitDy=0;" edge="1" parent="oRWARCPo0QpvzxCij0XQ-1" source="oRWARCPo0QpvzxCij0XQ-5" target="oRWARCPo0QpvzxCij0XQ-4">
          <mxGeometry relative="1" as="geometry" />
        </mxCell>
        <mxCell id="oRWARCPo0QpvzxCij0XQ-5" value="Application" style="whiteSpace=wrap;html=1;align=center;verticalAlign=middle;treeFolding=1;treeMoving=1;newEdgeStyle={&quot;edgeStyle&quot;:&quot;elbowEdgeStyle&quot;,&quot;startArrow&quot;:&quot;none&quot;,&quot;endArrow&quot;:&quot;none&quot;};" vertex="1" parent="oRWARCPo0QpvzxCij0XQ-1">
          <mxGeometry x="70" y="110" width="280" height="50" as="geometry" />
        </mxCell>
        <UserObject label="Presenters" treeRoot="1" id="oRWARCPo0QpvzxCij0XQ-10">
          <mxCell style="whiteSpace=wrap;html=1;align=center;treeFolding=1;treeMoving=1;newEdgeStyle={&quot;edgeStyle&quot;:&quot;elbowEdgeStyle&quot;,&quot;startArrow&quot;:&quot;none&quot;,&quot;endArrow&quot;:&quot;none&quot;};" vertex="1" parent="oRWARCPo0QpvzxCij0XQ-1">
            <mxGeometry x="75" y="40" width="275" height="40" as="geometry" />
          </mxCell>
        </UserObject>
        <mxCell id="oRWARCPo0QpvzxCij0XQ-15" style="edgeStyle=orthogonalEdgeStyle;rounded=0;orthogonalLoop=1;jettySize=auto;html=1;entryX=0.511;entryY=0.028;entryDx=0;entryDy=0;entryPerimeter=0;" edge="1" parent="oRWARCPo0QpvzxCij0XQ-1" source="oRWARCPo0QpvzxCij0XQ-10" target="oRWARCPo0QpvzxCij0XQ-5">
          <mxGeometry relative="1" as="geometry">
            <mxPoint x="212.5" y="80" as="targetPoint" />
          </mxGeometry>
        </mxCell>
        <mxCell id="oRWARCPo0QpvzxCij0XQ-16" style="edgeStyle=orthogonalEdgeStyle;rounded=0;orthogonalLoop=1;jettySize=auto;html=1;entryX=0.511;entryY=0.028;entryDx=0;entryDy=0;entryPerimeter=0;" edge="1" target="oRWARCPo0QpvzxCij0XQ-17" source="oRWARCPo0QpvzxCij0XQ-10" parent="oRWARCPo0QpvzxCij0XQ-1">
          <mxGeometry relative="1" as="geometry">
            <mxPoint x="212.5" y="80" as="targetPoint" />
            <mxPoint x="522.5" y="220" as="sourcePoint" />
          </mxGeometry>
        </mxCell>
        <mxCell id="oRWARCPo0QpvzxCij0XQ-17" value="Presenters" style="whiteSpace=wrap;html=1;align=center;verticalAlign=middle;treeFolding=1;treeMoving=1;newEdgeStyle={&quot;edgeStyle&quot;:&quot;elbowEdgeStyle&quot;,&quot;startArrow&quot;:&quot;none&quot;,&quot;endArrow&quot;:&quot;none&quot;};" vertex="1" parent="oRWARCPo0QpvzxCij0XQ-1">
          <mxGeometry x="70" y="40" width="280" height="50" as="geometry" />
        </mxCell>
        <mxCell id="oRWARCPo0QpvzxCij0XQ-20" value="ui" style="shape=delay;whiteSpace=wrap;html=1;" vertex="1" parent="oRWARCPo0QpvzxCij0XQ-1">
          <mxGeometry x="90" y="40" width="30" height="15" as="geometry" />
        </mxCell>
        <mxCell id="oRWARCPo0QpvzxCij0XQ-21" value="&lt;font style=&quot;font-size: 9px&quot;&gt;工作单元&lt;/font&gt;" style="shape=delay;whiteSpace=wrap;html=1;fontSize=6;" vertex="1" parent="oRWARCPo0QpvzxCij0XQ-1">
          <mxGeometry x="90" y="110" width="50" height="17.5" as="geometry" />
        </mxCell>
        <mxCell id="oRWARCPo0QpvzxCij0XQ-22" value="&lt;font style=&quot;font-size: 9px&quot;&gt;模型验证&lt;/font&gt;" style="shape=delay;whiteSpace=wrap;html=1;fontSize=6;" vertex="1" parent="oRWARCPo0QpvzxCij0XQ-1">
          <mxGeometry x="150" y="110" width="60" height="17.5" as="geometry" />
        </mxCell>
        <mxCell id="oRWARCPo0QpvzxCij0XQ-23" value="&lt;font style=&quot;font-size: 9px&quot;&gt;权限检查&lt;/font&gt;" style="shape=delay;whiteSpace=wrap;html=1;fontSize=6;" vertex="1" parent="oRWARCPo0QpvzxCij0XQ-1">
          <mxGeometry x="220" y="110" width="60" height="17.5" as="geometry" />
        </mxCell>
        <mxCell id="oRWARCPo0QpvzxCij0XQ-24" value="&lt;font size=&quot;1&quot;&gt;审计日志&lt;/font&gt;" style="shape=delay;whiteSpace=wrap;html=1;fontSize=6;" vertex="1" parent="oRWARCPo0QpvzxCij0XQ-1">
          <mxGeometry x="290" y="110" width="60" height="17.5" as="geometry" />
        </mxCell>
        <mxCell id="oRWARCPo0QpvzxCij0XQ-25" value="&lt;font size=&quot;1&quot;&gt;接口缓存&lt;/font&gt;" style="shape=delay;whiteSpace=wrap;html=1;fontSize=6;" vertex="1" parent="oRWARCPo0QpvzxCij0XQ-1">
          <mxGeometry x="290" y="140" width="60" height="17.5" as="geometry" />
        </mxCell>
        <mxCell id="oRWARCPo0QpvzxCij0XQ-27" value="&lt;font size=&quot;1&quot;&gt;接口缓存&lt;/font&gt;" style="shape=delay;whiteSpace=wrap;html=1;fontSize=6;" vertex="1" parent="oRWARCPo0QpvzxCij0XQ-1">
          <mxGeometry x="130" y="40" width="60" height="17.5" as="geometry" />
        </mxCell>
        <mxCell id="oRWARCPo0QpvzxCij0XQ-28" value="&lt;font style=&quot;font-size: 9px&quot;&gt;聚合根&lt;/font&gt;" style="shape=delay;whiteSpace=wrap;html=1;fontSize=6;" vertex="1" parent="oRWARCPo0QpvzxCij0XQ-1">
          <mxGeometry x="90" y="190" width="50" height="17.5" as="geometry" />
        </mxCell>
        <mxCell id="oRWARCPo0QpvzxCij0XQ-29" value="&lt;font style=&quot;font-size: 9px&quot;&gt;实体&lt;/font&gt;" style="shape=delay;whiteSpace=wrap;html=1;fontSize=6;" vertex="1" parent="oRWARCPo0QpvzxCij0XQ-1">
          <mxGeometry x="150" y="190" width="50" height="17.5" as="geometry" />
        </mxCell>
        <mxCell id="oRWARCPo0QpvzxCij0XQ-30" value="&lt;font style=&quot;font-size: 9px&quot;&gt;仓储抽象&lt;/font&gt;" style="shape=delay;whiteSpace=wrap;html=1;fontSize=6;" vertex="1" parent="oRWARCPo0QpvzxCij0XQ-1">
          <mxGeometry x="210" y="190" width="50" height="17.5" as="geometry" />
        </mxCell>
        <mxCell id="oRWARCPo0QpvzxCij0XQ-32" value="&lt;font size=&quot;1&quot;&gt;AOP&lt;/font&gt;" style="shape=delay;whiteSpace=wrap;html=1;fontSize=6;" vertex="1" parent="oRWARCPo0QpvzxCij0XQ-1">
          <mxGeometry x="200" y="40" width="60" height="17.5" as="geometry" />
        </mxCell>
        <mxCell id="oRWARCPo0QpvzxCij0XQ-33" value="&lt;font size=&quot;1&quot;&gt;统一错误&lt;/font&gt;" style="shape=delay;whiteSpace=wrap;html=1;fontSize=6;" vertex="1" parent="oRWARCPo0QpvzxCij0XQ-1">
          <mxGeometry x="270" y="40" width="60" height="17.5" as="geometry" />
        </mxCell>
        <mxCell id="oRWARCPo0QpvzxCij0XQ-34" value="&lt;font style=&quot;font-size: 9px&quot;&gt;领域服务&lt;/font&gt;" style="shape=delay;whiteSpace=wrap;html=1;fontSize=6;" vertex="1" parent="oRWARCPo0QpvzxCij0XQ-1">
          <mxGeometry x="270" y="190" width="50" height="17.5" as="geometry" />
        </mxCell>
      </root>
    </mxGraphModel>
  </diagram>
</mxfile>
